<svg width="64" height="64" viewBox="0 0 130 102" fill="none" xmlns="http://www.w3.org/2000/svg">
  <rect width="130" height="102" rx="22" fill="#0A3D2B"/>
  <!-- Left page -->
  <path d="M64 12 Q42 9 14 15 L14 92 Q40 86 64 90 Z" fill="#0F5C40" stroke="#C9A84C" stroke-width="1.8" stroke-linejoin="round"/>
  <line x1="26" y1="35" x2="55" y2="33" stroke="#C9A84C" stroke-width="1.1" opacity="0.5"/>
  <line x1="26" y1="45" x2="55" y2="43" stroke="#C9A84C" stroke-width="0.8" opacity="0.32"/>
  <line x1="26" y1="55" x2="55" y2="53" stroke="#C9A84C" stroke-width="0.8" opacity="0.32"/>
  <line x1="26" y1="65" x2="50" y2="63" stroke="#C9A84C" stroke-width="0.8" opacity="0.22"/>
  <!-- Right page -->
  <path d="M64 12 Q86 9 116 15 L116 92 Q90 86 64 90 Z" fill="#071F15" stroke="#C9A84C" stroke-width="1.8" stroke-linejoin="round"/>
  <!-- Spine -->
  <line x1="64" y1="11" x2="64" y2="91" stroke="#C9A84C" stroke-width="2.2"/>
  <!-- Star -->
  <text x="64" y="9" text-anchor="middle" font-size="9" fill="#C9A84C" opacity="0.85">✦</text>
  <!-- Qaf -->
  <text x="90" y="72" text-anchor="middle" font-family="serif" font-size="46" fill="#C9A84C" font-weight="700">ق</text>
  <!-- Bottom curl -->
  <path d="M14 92 Q40 86 64 90 Q90 86 116 92" fill="none" stroke="#C9A84C" stroke-width="1" opacity="0.35"/>
</svg>
